<?xml version="1.0" encoding="UTF-8" standalone="no"?>
<!-- Created with Inkscape (http://www.inkscape.org/) -->

<svg
   xmlns:dc="http://purl.org/dc/elements/1.1/"
   xmlns:cc="http://creativecommons.org/ns#"
   xmlns:rdf="http://www.w3.org/1999/02/22-rdf-syntax-ns#"
   xmlns:svg="http://www.w3.org/2000/svg"
   xmlns="http://www.w3.org/2000/svg"
   xmlns:sodipodi="http://sodipodi.sourceforge.net/DTD/sodipodi-0.dtd"
   xmlns:inkscape="http://www.inkscape.org/namespaces/inkscape"
   width="210mm"
   height="297mm"
   viewBox="0 0 210 297"
   version="1.1"
   id="svg8"
   inkscape:export-filename="/home/smelandr/bitmap.png"
   inkscape:export-xdpi="1172.519"
   inkscape:export-ydpi="1172.519"
   inkscape:version="0.92.2 (5c3e80d, 2017-08-06)"
   sodipodi:docname="mwtab_logo.svg">
  <defs
     id="defs2">
    <inkscape:path-effect
       effect="bspline"
       id="path-effect3896"
       is_visible="true"
       weight="33.333333"
       steps="2"
       helper_size="0"
       apply_no_weight="true"
       apply_with_weight="true"
       only_selected="false" />
    <inkscape:path-effect
       effect="bspline"
       id="path-effect3874"
       is_visible="true"
       weight="33.333333"
       steps="2"
       helper_size="0"
       apply_no_weight="true"
       apply_with_weight="true"
       only_selected="false" />
    <inkscape:path-effect
       effect="bspline"
       id="path-effect3870"
       is_visible="true"
       weight="33.333333"
       steps="2"
       helper_size="0"
       apply_no_weight="true"
       apply_with_weight="true"
       only_selected="false" />
    <inkscape:path-effect
       effect="bspline"
       id="path-effect3874-3"
       is_visible="true"
       weight="33.333333"
       steps="2"
       helper_size="0"
       apply_no_weight="true"
       apply_with_weight="true"
       only_selected="false" />
  </defs>
  <sodipodi:namedview
     id="base"
     pagecolor="#ffffff"
     bordercolor="#666666"
     borderopacity="1.0"
     inkscape:pageopacity="0.0"
     inkscape:pageshadow="2"
     inkscape:zoom="1.4"
     inkscape:cx="149.8265"
     inkscape:cy="585.48029"
     inkscape:document-units="mm"
     inkscape:current-layer="layer1"
     showgrid="false"
     inkscape:measure-start="418.708,604.071"
     inkscape:measure-end="418.456,603.819"
     inkscape:window-width="1920"
     inkscape:window-height="1043"
     inkscape:window-x="1920"
     inkscape:window-y="0"
     inkscape:window-maximized="1">
    <inkscape:grid
       type="xygrid"
       id="grid3739" />
  </sodipodi:namedview>
  <metadata
     id="metadata5">
    <rdf:RDF>
      <cc:Work
         rdf:about="">
        <dc:format>image/svg+xml</dc:format>
        <dc:type
           rdf:resource="http://purl.org/dc/dcmitype/StillImage" />
        <dc:title></dc:title>
      </cc:Work>
    </rdf:RDF>
  </metadata>
  <g
     inkscape:label="Layer 1"
     inkscape:groupmode="layer"
     id="layer1">
    <path
       style="fill:#000000;fill-opacity:1;stroke-width:0.25253814"
       d=""
       id="path4741"
       inkscape:connector-curvature="0"
       transform="scale(0.26458333)" />
    <g
       id="g4794"
       inkscape:export-xdpi="1172.519"
       inkscape:export-ydpi="1172.519">
      <path
         sodipodi:nodetypes="ccccccccccccc"
         inkscape:connector-curvature="0"
         id="path3751"
         d="M 89.958332,191.16667 84.666666,185.875 v -42.33333 l 5.291666,-7.9375 h -2.645833 v -2.64584 h 29.104171 v 2.64584 h -2.64584 l 5.29167,7.9375 V 185.875 l -5.29167,5.29167 z"
         style="fill:none;stroke:#000000;stroke-width:0.26458332px;stroke-linecap:butt;stroke-linejoin:miter;stroke-opacity:1" />
      <path
         sodipodi:nodetypes="cccc"
         inkscape:connector-curvature="0"
         id="path3787"
         d="m 89.958333,138.25 c 0,-2.64583 -2.645833,-2.64583 -2.645833,-2.64583 l 2.645832,0 z"
         style="fill:none;stroke:#000000;stroke-width:0.26458332px;stroke-linecap:butt;stroke-linejoin:miter;stroke-opacity:1" />
      <path
         inkscape:connector-curvature="0"
         id="path3789"
         d="m 113.77083,138.25 c 0,-2.64583 2.64584,-2.64583 2.64584,-2.64583 h -2.64584 z"
         style="fill:none;stroke:#000000;stroke-width:0.26458332px;stroke-linecap:butt;stroke-linejoin:miter;stroke-opacity:1" />
      <path
         sodipodi:nodetypes="cccccccc"
         inkscape:original-d="m 103.8239,134.29199 c 1.28755,-2.47351 2.57472,-4.94653 3.86152,-7.41907 1.56631,0.108 3.1328,0.21629 4.69854,0.32482 0.74054,-0.0363 1.48104,-0.0723 2.22094,-0.1079 0.0363,0.73938 0.0723,1.48015 0.10791,2.22093 -2.1499,1.58895 -4.29763,3.17647 -6.44707,4.7654 -1.48054,0.0714 -2.96083,0.14338 -4.44186,0.21572 z"
         inkscape:path-effect="#path-effect3874"
         inkscape:connector-curvature="0"
         id="path3872"
         d="m 104.46763,133.05521 c 0.64372,-1.23678 1.93089,-3.7098 3.35749,-4.8919 1.42659,-1.18211 2.99308,-1.07381 4.14624,-1.03768 1.15316,0.0361 1.89366,1.6e-4 2.28156,0.35188 0.38791,0.35173 0.4239,1.0925 -0.63302,2.25741 -1.05691,1.16491 -3.20465,2.75242 -5.01966,3.58279 -1.81502,0.83036 -3.29531,0.90225 -4.03583,0.93822 -0.74053,0.036 -0.74051,0.0361 -0.0968,-1.20072 z"
         style="fill:none;fill-opacity:1;stroke:#000000;stroke-width:0.44470891px;stroke-linecap:butt;stroke-linejoin:miter;stroke-opacity:1" />
      <path
         sodipodi:nodetypes="cccccccc"
         inkscape:original-d="m 106.3625,131.63541 c 0.88222,-1.0586 1.76416,-2.11693 2.64584,-3.175 0.44107,-2.6e-4 0.8822,-2.6e-4 1.32291,0 0.44098,-2.6e-4 0.88221,-2.6e-4 1.32292,0 0.35436,-2.6e-4 0.70582,-2.6e-4 1.05833,0 -0.79349,0.88169 -1.62641,1.80716 -2.38125,2.64584 -0.41894,0.0836 -0.88141,0.17607 -1.32291,0.26458 -0.88223,0.088 -1.76362,0.17612 -2.64584,0.26458 z"
         inkscape:path-effect="#path-effect3896"
         inkscape:connector-curvature="0"
         id="path3894"
         d="m 107.24472,131.06199 c -3e-5,-0.48521 0.88191,-1.54353 1.5433,-2.07256 0.66139,-0.52902 1.10252,-0.52902 1.54337,-0.52902 0.44084,0 0.88207,0 1.2796,0 0.39754,0 0.749,0 0.5285,0.44084 -0.2205,0.44084 -1.05342,1.36631 -1.64028,1.82754 -0.58686,0.46124 -1.04933,0.55373 -1.7112,0.642 -0.66188,0.0883 -1.54327,0.1764 -1.54329,-0.3088 z"
         style="fill:none;stroke:#000000;stroke-width:0.26458332px;stroke-linecap:butt;stroke-linejoin:miter;stroke-opacity:1" />
      <path
         transform="scale(0.26458333)"
         inkscape:connector-curvature="0"
         id="path4711"
         d="m 396.8357,501.87297 c 0.48364,-0.91624 3.5535,-5.62282 4.82958,-7.40451 6.18641,-8.63764 10.78323,-11.76494 18.45966,-12.55845 1.69574,-0.17529 4.49859,-0.30622 6.66069,-0.31115 1.96715,-0.004 2.19671,0.006 2.74635,0.12896 0.98324,0.21944 1.30607,0.36906 1.7471,0.80973 0.31802,0.31776 0.40948,0.45739 0.49717,0.75905 0.14151,0.48675 0.0971,1.40935 -0.0956,1.98777 -0.4799,1.44021 -1.66673,3.18608 -3.38682,4.98217 -3.59303,3.75178 -9.62819,8.24905 -15.08362,11.23999 l -0.92749,0.50849 h -7.76099 -7.76099 z m 15.78879,-4.01876 c 1.23916,-0.27039 2.27104,-0.72217 3.47536,-1.52161 1.85039,-1.2283 4.41529,-3.60636 5.89557,-5.46611 0.8806,-1.10633 1.22848,-1.79263 1.23153,-2.42954 0.004,-0.79034 -0.53447,-1.24121 -1.64852,-1.3809 -0.71394,-0.0895 -7.44735,-0.0892 -8.25091,4.5e-4 -2.09114,0.23317 -3.59808,1.26017 -5.04245,3.43647 -1.32617,1.99821 -2.11574,4.00373 -2.12162,5.38899 -0.002,0.47459 0.0189,0.56977 0.20844,0.94701 0.24033,0.47841 0.54803,0.74613 1.09103,0.9493 0.56871,0.21278 1.05132,0.25183 2.8446,0.23016 1.44876,-0.0175 1.79654,-0.0407 2.31697,-0.15422 z"
         style="fill:none;fill-opacity:1;stroke-width:0.06313454" />
      <path
         transform="scale(0.26458333)"
         inkscape:connector-curvature="0"
         id="path4713"
         d="m 396.8357,501.87297 c 0.48364,-0.91624 3.5535,-5.62282 4.82958,-7.40451 6.18641,-8.63764 10.78323,-11.76494 18.45966,-12.55845 1.69574,-0.17529 4.49859,-0.30622 6.66069,-0.31115 1.96715,-0.004 2.19671,0.006 2.74635,0.12896 0.98324,0.21944 1.30607,0.36906 1.7471,0.80973 0.31802,0.31776 0.40948,0.45739 0.49717,0.75905 0.14151,0.48675 0.0971,1.40935 -0.0956,1.98777 -0.4799,1.44021 -1.66673,3.18608 -3.38682,4.98217 -3.59303,3.75178 -9.62819,8.24905 -15.08362,11.23999 l -0.92749,0.50849 h -7.76099 -7.76099 z m 15.78879,-4.01876 c 1.23916,-0.27039 2.27104,-0.72217 3.47536,-1.52161 1.85039,-1.2283 4.41529,-3.60636 5.89557,-5.46611 0.8806,-1.10633 1.22848,-1.79263 1.23153,-2.42954 0.004,-0.79034 -0.53447,-1.24121 -1.64852,-1.3809 -0.71394,-0.0895 -7.44735,-0.0892 -8.25091,4.5e-4 -2.09114,0.23317 -3.59808,1.26017 -5.04245,3.43647 -1.32617,1.99821 -2.11574,4.00373 -2.12162,5.38899 -0.002,0.47459 0.0189,0.56977 0.20844,0.94701 0.24033,0.47841 0.54803,0.74613 1.09103,0.9493 0.56871,0.21278 1.05132,0.25183 2.8446,0.23016 1.44876,-0.0175 1.79654,-0.0407 2.31697,-0.15422 z"
         style="fill:none;fill-opacity:1;stroke-width:0.06313454" />
      <path
         transform="scale(0.26458333)"
         inkscape:connector-curvature="0"
         id="path4715"
         d="m 396.90909,501.92265 c 0,-0.14234 1.68542,-2.80033 3.3957,-5.35519 4.32364,-6.45879 8.25404,-10.52028 12.05073,-12.4527 2.62448,-1.33579 5.36773,-1.98492 9.68959,-2.29281 3.97547,-0.28322 7.60698,-0.16921 8.49342,0.26664 1.74809,0.8595 1.68858,2.77265 -0.1735,5.57799 -2.39351,3.60597 -9.78121,9.61253 -16.4293,13.35782 l -1.75639,0.98948 h -7.63513 c -4.19932,0 -7.63512,-0.041 -7.63512,-0.0912 z m 15.75014,-4.03467 c 2.64437,-0.55145 6.48376,-3.41052 9.27284,-6.90518 1.26606,-1.58634 1.59597,-2.49105 1.15423,-3.16522 -0.16667,-0.25437 -0.51707,-0.54387 -0.77867,-0.64333 -0.29227,-0.11112 -2.33675,-0.15968 -5.30316,-0.12596 l -4.82752,0.0549 -0.9436,0.49717 c -1.58839,0.8369 -2.8148,2.27242 -4.0584,4.75038 -1.44785,2.88492 -1.4211,4.57359 0.0845,5.33281 0.67152,0.33863 1.08417,0.40178 2.62514,0.40178 1.0056,0 2.2542,-0.0888 2.77466,-0.19733 z"
         style="fill:none;fill-opacity:1;stroke-width:0.17857143" />
      <path
         transform="scale(0.26458333)"
         inkscape:connector-curvature="0"
         id="path4739"
         d="m 330.49012,712.14542 -9.78464,-9.78705 v -79.8644 -79.86439 l 8.50139,-12.75277 c 4.67577,-7.01402 8.57537,-12.75277 8.66579,-12.75277 0.35692,0 1.05929,1.94054 1.33926,3.7002 0.26657,1.67541 0.35104,1.85564 0.86966,1.85564 h 0.57441 l 0.003,-4.86136 c 0.002,-2.67375 0.072,-5.11705 0.15572,-5.42957 l 0.15228,-0.56821 h -5.20649 -5.20648 v -4.29315 -4.29315 h 31.441 c 17.29254,0 31.44099,0.0455 31.44099,0.1012 0,0.0557 -0.28299,0.70909 -0.62887,1.45209 -0.79432,1.70628 -0.82875,2.87031 -0.0965,3.2622 1.11968,0.59924 7.50245,0.0912 11.33674,-0.90239 2.42837,-0.62925 5.7825,-1.87709 7.88143,-2.93213 l 1.95156,-0.98097 h 12.75878 12.75878 v 4.29315 4.29315 h -5.20405 c -4.64166,0 -5.18748,0.0432 -5.05076,0.39946 0.0843,0.2197 0.15329,2.66301 0.15329,5.42957 v 5.03011 h 0.58649 c 0.5316,0 0.61205,-0.16511 0.85954,-1.76401 0.15017,-0.9702 0.52507,-2.28464 0.83312,-2.92097 l 0.56007,-1.15695 8.68191,13.02138 8.68192,13.02137 v 79.61496 79.61496 l -9.91331,9.91093 -9.9133,9.91092 h -44.69928 -44.69928 z"
         style="fill:#000000;fill-opacity:1;stroke-width:0.25253814" />
      <path
         transform="scale(0.26458333)"
         inkscape:connector-curvature="0"
         id="path4743"
         d="M 329.85882,712.77681 319.69533,702.61099 V 622.4309 542.25081 l 8.72998,-13.09348 c 4.8015,-7.20141 8.67562,-13.23515 8.60917,-13.40831 -0.37453,-0.97602 -3.67993,-2.44167 -6.29061,-2.78933 l -1.19956,-0.15975 v -5.28782 -5.28783 h 32.43927 32.43926 l 1.1421,-2.20971 c 2.98798,-5.7811 6.85421,-11.51564 9.73175,-14.43452 3.09294,-3.13737 5.8186,-4.64955 9.85486,-5.4674 1.77766,-0.3602 3.09078,-0.40712 8.19424,-0.29284 3.47048,0.0777 6.49381,0.262 7.04822,0.4296 2.06833,0.62527 3.3904,2.66458 3.0214,4.66053 -0.71537,3.86951 -6.42596,9.6676 -15.10378,15.33521 l -3.0303,1.97913 h 12.56361 12.56362 v 5.28783 5.28782 l -1.19956,0.16074 c -0.65976,0.0884 -1.84731,0.37011 -2.63901,0.62599 -1.48194,0.47899 -3.73758,1.85975 -3.73758,2.28792 0,0.13284 3.92066,6.12183 8.71257,13.30887 l 8.71256,13.06735 v 80.3087 80.3087 l -10.03956,10.0372 -10.03956,10.03721 h -45.07805 -45.07806 z m 109.85647,-0.37886 c 5.38155,-5.38287 9.78464,-9.95644 9.78464,-10.16347 0,-0.20703 -4.5178,4.14032 -10.03956,9.66078 l -10.03956,10.03721 h -44.44436 -44.44436 l -9.9133,-9.91092 -9.91331,-9.91093 v -79.62509 -79.62508 l 8.32131,-12.44815 c 4.57673,-6.84648 8.49139,-12.5893 8.69926,-12.76181 0.32382,-0.26874 0.44963,-0.0667 0.87846,1.41084 0.27528,0.94848 0.57052,2.15067 0.65609,2.67153 0.1275,0.77605 0.26088,0.94702 0.73881,0.94702 h 0.58323 l 0.22608,-5.43013 0.22608,-5.43012 -5.24017,5.5e-4 -5.24016,5.6e-4 v -4.33353 -4.33353 l 31.24422,0.18032 c 17.18432,0.0992 31.27796,0.21407 31.31921,0.25532 0.0412,0.0412 -0.15181,0.57489 -0.42902,1.18588 -0.87733,1.9337 -0.60282,3.515 0.60869,3.50628 0.46298,-0.003 0.45097,-0.0373 -0.11364,-0.32152 -0.91533,-0.46075 -0.92447,-1.44025 -0.0312,-3.34901 l 0.76232,-1.62905 h -31.80653 -31.80654 v 4.54569 4.54569 l 5.1139,-2.6e-4 5.11389,-2.5e-4 -0.0731,5.17729 c -0.0558,3.95027 -0.14832,5.17728 -0.39054,5.17728 -0.19604,0 -0.43425,-0.68104 -0.62279,-1.78055 -0.28742,-1.67611 -1.03409,-3.57329 -1.52598,-3.87729 -0.12127,-0.0749 -4.10037,5.6858 -8.84245,12.80167 l -8.62195,12.93795 v 79.92464 79.92463 l 9.91093,9.91331 9.91092,9.91331 h 44.82793 44.82793 z m 1.17894,-182.92863 c -8.59116,-12.88304 -8.63685,-12.94534 -9.08716,-12.38924 -0.54272,0.67024 -1.14662,2.49981 -1.36906,4.1477 -0.10562,0.78243 -0.28481,1.19956 -0.51532,1.19956 -0.28896,0 -0.36671,-0.94391 -0.42647,-5.17728 l -0.0731,-5.17729 5.1139,2.5e-4 5.11389,2.6e-4 v -4.54569 -4.54569 h -12.84219 -12.8422 l -2.62576,1.23439 c -4.62866,2.17595 -10.97359,3.80978 -14.83583,3.82024 -0.78485,0.002 -1.581,0.10146 -1.76923,0.22072 -0.2005,0.12705 0.42698,0.17207 1.51523,0.1087 5.38322,-0.31345 10.96687,-1.74339 15.58559,-3.99136 l 2.34255,-1.14015 h 12.60965 12.60965 v 4.29315 4.29315 h -5.21646 -5.21646 l 0.1657,3.82822 c 0.0911,2.10553 0.1657,4.54883 0.1657,5.42957 0,1.53975 0.0243,1.60135 0.63134,1.60135 0.34724,0 0.63135,-0.036 0.63135,-0.0799 0,-0.66404 0.67257,-3.36309 1.06829,-4.28706 l 0.51831,-1.21022 8.60633,12.91236 c 4.73348,7.1018 8.64457,12.79762 8.69132,12.65738 0.0467,-0.14024 -3.80057,-6.08165 -8.54959,-13.20313 z M 339.64584,515.67646 v -1.95266 l -0.63134,0.92911 c -0.34724,0.51101 -0.63135,1.00695 -0.63135,1.1021 0,0.22424 1.01858,1.87411 1.15702,1.87411 0.0581,0 0.10567,-0.8787 0.10567,-1.95266 z m 91.5131,1.09535 c 0.49891,-0.92642 0.42532,-1.44327 -0.34539,-2.42569 l -0.49529,-0.63135 -0.006,1.95718 c -0.003,1.07644 0.0822,1.95717 0.18949,1.95717 0.10731,0 0.40287,-0.38579 0.6568,-0.85731 z M 338.47586,514.099 c 0.3657,-0.55261 0.6649,-1.064 0.6649,-1.13643 0,-0.0724 -1.02278,-0.13168 -2.27284,-0.13168 -2.32854,0 -2.80699,0.22255 -1.57528,0.73274 0.38366,0.15892 1.0371,0.56637 1.45209,0.90544 0.415,0.33908 0.82467,0.62059 0.91038,0.62558 0.0857,0.005 0.45505,-0.44305 0.82075,-0.99565 z m 95.11417,0.12085 c 0.72239,-0.48613 1.41567,-0.88388 1.5406,-0.88388 0.12494,0 0.22716,-0.11364 0.22716,-0.25254 0,-0.27102 -4.09769,-0.36381 -4.36272,-0.0988 -0.12901,0.12902 1.01125,2.11909 1.21418,2.11909 0.037,0 0.65838,-0.39774 1.38078,-0.88388 z m -32.82996,-8.121 c 2.39081,-0.38995 7.64126,-1.96876 9.00504,-2.70781 0.66024,-0.35779 0.12074,-0.38972 -6.74113,-0.39902 l -7.45881,-0.0101 -0.81181,1.64628 c -0.4465,0.90546 -0.81182,1.77121 -0.81182,1.92391 0,0.33967 3.30351,0.12009 6.81853,-0.45324 z m 12.44756,-4.41598 c 6.17592,-3.1449 15.77276,-11.01547 17.81408,-14.6097 1.81978,-3.20415 1.20205,-4.95404 -1.96057,-5.55382 -2.23398,-0.42367 -11.9707,-0.37314 -14.05059,0.0729 -5.11172,1.09625 -8.89351,4.18245 -13.36809,10.90931 -1.91153,2.8737 -5.42808,9.00366 -5.42808,9.4621 0,0.17362 2.6588,0.26062 7.96502,0.26062 7.64424,0 8.00783,-0.0218 9.02823,-0.54142 z"
         style="fill:#000000;fill-opacity:1;stroke-width:0.25253814" />
      <path
         transform="scale(0.26458333)"
         inkscape:connector-curvature="0"
         id="path4745"
         d="m 329.84945,712.77796 -10.15063,-10.16466 -0.002,-80.16931 -0.002,-80.16932 8.57057,-12.89099 c 4.71381,-7.09004 8.64242,-13.07892 8.73025,-13.30862 0.30802,-0.80555 -3.86612,-2.98387 -5.73924,-2.99508 -0.31689,-0.002 -0.83187,-0.072 -1.14438,-0.15572 -0.56626,-0.15175 -0.56822,-0.17043 -0.56822,-5.42612 v -5.27385 h 32.41099 32.41098 l 1.58609,-2.96732 c 5.47436,-10.24169 10.46257,-16.02466 15.63538,-18.12656 3.00986,-1.22302 5.12761,-1.45907 11.75804,-1.31059 3.40963,0.0764 6.49609,0.26288 7.03128,0.42492 1.35226,0.40943 2.65058,1.63599 2.96408,2.80026 1.04212,3.87012 -4.54252,10.29087 -14.90341,17.13468 l -2.90419,1.91834 12.4375,0.0655 12.43751,0.0655 v 5.28948 5.28947 l -0.94702,0.15101 c -2.66656,0.42521 -4.26341,1.01727 -5.95069,2.20632 -0.46798,0.3298 -0.65765,0.63848 -0.55564,0.90432 0.0852,0.22198 4.01306,6.21 8.72861,13.3067 l 8.57372,12.90309 v 80.29438 80.29439 l -10.03956,10.0372 -10.03956,10.03721 h -45.08917 -45.08918 z m 107.27922,2.14658 c 3.95844,-3.99326 8.38975,-8.50288 9.84735,-10.02137 l 2.65018,-2.7609 -2.02031,1.79735 c -1.11116,0.98855 -5.65618,5.44134 -10.10004,9.8951 l -8.07974,8.09775 H 384.9791 340.53209 l -9.9133,-9.91092 -9.91331,-9.91093 V 622.4883 542.86598 l 8.3115,-12.44276 c 4.57132,-6.84353 8.48599,-12.58759 8.69926,-12.76458 0.33683,-0.27955 0.45259,-0.0953 0.88139,1.40269 0.2715,0.94848 0.5938,2.12226 0.71622,2.6084 0.15948,0.63331 0.38127,0.90676 0.78236,0.96458 0.54422,0.0784 0.56041,0.0118 0.58239,-2.39911 0.0124,-1.3639 0.0977,-3.81522 0.1894,-5.44739 l 0.1668,-2.96758 -5.24017,2.6e-4 -5.24016,2.5e-4 v -4.33371 -4.3337 l 31.24337,0.17965 c 17.18385,0.0988 31.2775,0.21377 31.31922,0.25549 0.0417,0.0417 -0.15097,0.57574 -0.42818,1.18673 -0.83124,1.83213 -0.60396,3.51 0.47548,3.51 0.26859,0 0.2153,-0.1185 -0.17678,-0.39312 -0.76477,-0.53567 -0.71503,-1.42759 0.18582,-3.33181 l 0.74669,-1.57837 h -31.80908 -31.80908 v 4.54569 4.54569 h 5.20405 c 4.64166,0 5.18749,0.0432 5.05076,0.39946 -0.0843,0.2197 -0.15329,2.54937 -0.15329,5.17703 0,3.74582 -0.0707,4.77757 -0.32751,4.77757 -0.20506,0 -0.43008,-0.5988 -0.60184,-1.60151 -0.33699,-1.96734 -1.2162,-4.03743 -1.6549,-3.89645 -0.17596,0.0566 -4.15536,5.82675 -8.8431,12.82269 l -8.52316,12.71987 v 79.94323 79.94322 l 9.91093,9.91331 9.91092,9.91331 h 44.82835 44.82835 z m 12.14162,-172.73609 c -0.87596,-1.56472 -16.87123,-25.18837 -17.09976,-25.2549 -0.42305,-0.12316 -1.29425,1.92719 -1.62438,3.82294 -0.19092,1.09634 -0.40889,1.67085 -0.63391,1.67085 -0.27537,0 -0.35734,-1.02013 -0.41602,-5.17728 l -0.0731,-5.17729 5.1139,2.5e-4 5.11389,2.6e-4 v -4.54569 -4.54569 h -12.84219 -12.8422 l -2.62576,1.23439 c -4.43833,2.08648 -8.96799,3.32993 -13.87382,3.80853 l -2.38901,0.23307 2.65165,-0.1117 c 4.39228,-0.18502 10.15313,-1.77544 14.70404,-4.05941 l 1.69833,-0.85234 h 12.63321 12.63321 v 4.29315 4.29315 h -5.21618 -5.21618 l 0.16542,3.44919 c 0.091,1.89706 0.16542,4.34037 0.16542,5.42957 0,1.94405 0.0116,1.98038 0.63134,1.98038 0.34724,0 0.63332,-0.0852 0.63573,-0.1894 0.0143,-0.61627 0.7773,-3.62477 1.1298,-4.4546 l 0.41722,-0.98219 3.93272,5.90669 c 6.69639,10.05756 13.22043,19.67001 13.35017,19.67001 0.0681,0 0.0125,-0.19887 -0.12357,-0.44194 z m -109.63353,-26.39024 -0.009,-1.8309 -0.62101,0.75762 c -0.34156,0.41669 -0.62158,0.85784 -0.62227,0.98034 -10e-4,0.25871 0.99889,1.92385 1.15577,1.92385 0.0581,0 0.10158,-0.82391 0.0966,-1.83091 z m 91.67574,0.57953 c 0.26751,-0.64584 0.22716,-0.83996 -0.35164,-1.69175 l -0.65383,-0.96219 v 1.98358 c 0,1.66643 0.0562,1.93692 0.35164,1.69175 0.1934,-0.16051 0.48762,-0.62014 0.65383,-1.02139 z m -92.85125,-2.25667 c 0.35767,-0.54047 0.58111,-1.05186 0.49655,-1.13643 -0.20906,-0.20905 -3.98355,-0.19621 -4.19403,0.0143 -0.0924,0.0924 0.39186,0.4878 1.07617,0.87863 0.68432,0.39082 1.31591,0.8266 1.40354,0.96839 0.27681,0.44789 0.54884,0.28596 1.21777,-0.72487 z m 95.12878,0.0988 c 0.72239,-0.48613 1.44408,-0.88562 1.60374,-0.88775 0.15985,-0.002 0.12008,-0.11387 -0.0885,-0.24867 -0.54668,-0.35329 -4.04061,-0.32447 -4.04061,0.0333 0,0.27929 0.97257,1.98697 1.13164,1.98697 0.0442,0 0.67134,-0.39774 1.39374,-0.88388 z m -35.92222,-7.70486 c 3.24358,-0.34172 5.79081,-0.89275 8.95218,-1.93657 4.67688,-1.54421 4.59449,-1.57937 -3.72228,-1.58848 l -7.33254,-0.008 -0.81181,1.64628 c -0.4465,0.90546 -0.81182,1.75777 -0.81182,1.89404 0,0.30777 0.75008,0.30631 3.72627,-0.007 z m 16.12189,-5.19648 c 5.02137,-2.66388 12.7922,-8.71123 15.65719,-12.18458 3.08193,-3.73637 3.38844,-6.21621 0.90363,-7.3109 -1.44617,-0.63711 -12.6824,-0.77217 -15.38433,-0.18492 -5.01811,1.09067 -8.55078,3.92315 -12.91897,10.35839 -2.90106,4.27385 -5.97444,9.74947 -5.65277,10.07113 0.0862,0.0862 3.65118,0.15666 7.92227,0.15666 h 7.76562 z"
         style="fill:#000000;fill-opacity:1;stroke-width:0.25253814" />
      <path
         transform="scale(0.26458333)"
         inkscape:connector-curvature="0"
         id="path4747"
         d="m 337.54864,514.89824 c -0.41468,-0.43641 -1.42623,-1.13594 -2.24965,-1.55574 -0.2959,-0.15086 -0.538,-0.28356 -0.538,-0.29489 0,-0.0113 0.94654,-0.0206 2.10342,-0.0206 2.00368,0 2.10243,0.004 2.08241,0.0804 -0.0175,0.067 -1.14141,1.78996 -1.23635,1.89537 -0.0167,0.0186 -0.0896,-0.0285 -0.16183,-0.10451 z"
         style="fill:#000000;fill-opacity:1;stroke-width:0.04464286" />
      <path
         transform="scale(0.26458333)"
         inkscape:connector-curvature="0"
         id="path4749"
         d="m 339.38849,517.33014 c -0.12703,-0.268 -0.49049,-0.85773 -0.73716,-1.19607 l -0.22266,-0.30543 0.52107,-0.78206 0.52107,-0.78206 0.0122,0.80981 c 0.007,0.4454 0.007,1.17424 0,1.61965 l -0.0122,0.80982 z"
         style="fill:#000000;fill-opacity:1;stroke-width:0.04464286" />
      <path
         transform="scale(0.26458333)"
         inkscape:connector-curvature="0"
         id="path4751"
         d="m 340.53675,517.55826 0.005,-4.91072 0.1222,-0.17693 0.1222,-0.17694 -0.0245,0.4448 c -0.0135,0.24463 -0.0344,0.48497 -0.0465,0.53407 -0.0121,0.0491 -0.0411,2.03795 -0.0644,4.41965 -0.0233,2.38169 -0.0599,4.4308 -0.0812,4.55357 -0.0229,0.13192 -0.0366,-1.78512 -0.0333,-4.6875 z"
         style="fill:#000000;fill-opacity:1;stroke-width:0.04464286" />
      <path
         transform="scale(0.26458333)"
         inkscape:connector-curvature="0"
         id="path4753"
         d="m 330.51992,511.91094 c 0,-0.0888 0.0298,-0.0893 5.20089,-0.0893 5.17113,0 5.2009,5.1e-4 5.2009,0.0893 0,0.0888 -0.0298,0.0893 -5.2009,0.0893 -5.17113,0 -5.20089,-5.1e-4 -5.20089,-0.0893 z"
         style="fill:#000000;fill-opacity:1;stroke-width:0.04464286" />
      <path
         transform="scale(0.26458333)"
         inkscape:connector-curvature="0"
         id="path4755"
         d="m 330.50971,507.45786 v -4.42787 h 11.63254 11.63254 v 0.0947 0.0947 l -5.24412,4e-5 c -4.4758,5e-5 -12.51416,-0.0323 -17.09367,-0.0687 l -0.89572,-0.007 v 4.33893 4.33894 l 0.2407,0.002 0.2407,0.002 -0.22231,0.0114 c -0.12226,0.006 -0.23768,0.0196 -0.25648,0.0297 l -0.0342,0.0183 z"
         style="fill:#000000;fill-opacity:1;stroke-width:0.01578363" />
      <path
         transform="scale(0.26458333)"
         inkscape:connector-curvature="0"
         id="path4757"
         d="m 430.50788,522.11546 c 0.002,-0.0167 0.004,-0.0794 0.006,-0.13923 0.008,-0.28962 0.04,-0.6899 0.0808,-1.02399 0.18216,-1.49024 0.63269,-2.78342 1.35312,-3.88393 0.0595,-0.0909 0.0634,-0.0955 0.0941,-0.11097 0.0176,-0.009 0.0333,-0.0148 0.0348,-0.0132 0.002,0.002 -0.11308,0.24238 -0.25483,0.53508 -0.14175,0.2927 -0.27519,0.5711 -0.29653,0.61868 -0.27139,0.60504 -0.59055,1.71318 -0.74896,2.60044 -0.0107,0.0598 -0.0334,0.19797 -0.0506,0.30692 -0.0632,0.40173 -0.11244,0.68332 -0.15127,0.86496 -0.0214,0.1 -0.0628,0.26894 -0.0669,0.27308 -10e-4,0.001 -10e-4,-0.0111 2.4e-4,-0.0278 z"
         style="fill:#000000;fill-opacity:1;stroke-width:0.00558036" />
      <path
         transform="scale(0.26458333)"
         inkscape:connector-curvature="0"
         id="path4759"
         d="m 431.71114,514.1366 c -0.32107,-0.48198 -0.58376,-0.91909 -0.58376,-0.97136 0,-0.0826 0.25657,-0.095 1.95717,-0.095 1.07644,0 1.95704,0.0213 1.95688,0.0474 -1.5e-4,0.026 -0.24352,0.17159 -0.54082,0.32343 -0.58078,0.29664 -1.29925,0.78827 -1.85824,1.27154 l -0.34747,0.30041 z"
         style="fill:#000000;fill-opacity:1;stroke-width:0.06313454" />
      <path
         transform="scale(0.26458333)"
         inkscape:connector-curvature="0"
         id="path4761"
         d="m 430.56031,515.88286 c -6.5e-4,-0.85689 0.0226,-1.48609 0.0536,-1.4521 0.21715,0.23804 0.82917,1.2519 0.82917,1.37359 0,0.0828 -0.11886,0.33244 -0.26414,0.55485 -0.14528,0.22241 -0.34364,0.54644 -0.4408,0.72006 l -0.17665,0.31567 z"
         style="fill:#000000;fill-opacity:1;stroke-width:0.06313454" />
      <path
         transform="scale(0.26458333)"
         inkscape:connector-curvature="0"
         id="path4763"
         d="m 429.6405,522.65253 c -0.15944,-0.0343 -0.22562,-0.11293 -0.27434,-0.32579 -0.0496,-0.21679 -0.0565,-0.54087 -0.057,-2.68321 -7.5e-4,-3.65867 -0.0383,-6.04093 -0.11087,-7.03161 -0.015,-0.20522 -0.0284,-0.30896 -0.0548,-0.42655 -0.007,-0.0296 0.0429,0.0326 0.13381,0.16779 l 0.14439,0.21476 0.0323,2.0502 c 0.0213,1.35379 0.035,3.04597 0.0402,4.98174 l 0.008,2.93155 0.41269,0.004 0.4127,0.004 -0.0757,0.0498 c -0.12176,0.0801 -0.39908,0.10864 -0.61135,0.0629 z"
         style="fill:#000000;fill-opacity:1;stroke-width:0.01578363" />
      <path
         transform="scale(0.26458333)"
         inkscape:connector-curvature="0"
         id="path4765"
         d="m 429.27061,511.99641 c 0.0675,-0.0297 0.25619,-0.0663 0.44139,-0.0857 0.62888,-0.0659 1.6515,-0.0796 5.9307,-0.0799 l 3.76834,-2.1e-4 v -4.30104 -4.30104 h -12.77149 -12.77149 l -0.98,0.49553 c -1.75984,0.88986 -2.57037,1.25611 -4.0657,1.83712 -0.71316,0.27711 -0.66593,0.26122 -0.66002,0.22204 0.004,-0.0263 0.0395,-0.0463 0.17073,-0.0963 1.71095,-0.65116 3.53184,-1.49278 5.33718,-2.46687 l 0.3646,-0.19672 h 12.72756 12.72755 v 4.49834 4.49833 l -5.13362,-10e-4 c -4.29268,-10e-4 -5.12578,-0.005 -5.08573,-0.0223 z"
         style="fill:#000000;fill-opacity:1;stroke-width:0.01578363" />
      <path
         transform="scale(0.26458333)"
         inkscape:connector-curvature="0"
         id="path4767"
         d="m 394.24608,506.02852 c 0.12388,-0.28237 0.51341,-1.06768 0.86562,-1.74515 l 0.6404,-1.23175 6.78571,0.0279 c 3.73215,0.0153 6.85748,0.0622 6.94518,0.10414 0.13185,0.0631 0.0819,0.11217 -0.28826,0.28369 -0.84932,0.39349 -3.17261,1.21774 -4.53287,1.60815 -3.0179,0.86617 -7.06303,1.46464 -9.90931,1.46605 l -0.7317,3.6e-4 z"
         style="fill:#000000;fill-opacity:1;stroke-width:0.08928572" />
      <path
         inkscape:export-ydpi="3241.8486"
         inkscape:export-xdpi="3241.8486"
         transform="scale(0.26458333)"
         inkscape:connector-curvature="0"
         id="path4769"
         d="m 396.42174,501.88412 c 0,-0.11813 0.77122,-1.59259 1.76682,-3.37792 3.16681,-5.67879 5.97864,-9.64209 8.7492,-12.33212 2.66579,-2.5883 5.29347,-3.95163 8.7697,-4.55001 1.93694,-0.33341 7.16137,-0.38769 11.83035,-0.12291 3.11645,0.17673 4.33036,0.89956 4.33036,2.57854 0,0.65822 -0.15765,1.1813 -0.6748,2.239 -0.69431,1.42005 -1.67492,2.67536 -3.55992,4.55721 -3.62752,3.62143 -8.95233,7.56305 -14.08861,10.42887 l -1.22511,0.68356 h -7.949 c -5.99938,0 -7.94899,-0.0256 -7.94899,-0.10422 z m 14.62488,-4.81015 c 3.59475,-0.46094 5.1636,-1.08929 7.42869,-2.97532 1.05807,-0.881 2.82342,-2.6751 3.92036,-3.98421 1.64959,-1.96866 2.335,-3.21263 2.20858,-4.00844 -0.063,-0.39636 -0.52215,-0.84783 -1.0089,-0.99196 -0.49951,-0.14791 -5.66308,-0.21903 -7.39682,-0.10189 -1.70849,0.11543 -2.21837,0.23849 -3.39286,0.81884 -1.41896,0.70115 -2.96568,1.96174 -4.51662,3.68107 -2.69719,2.99004 -3.87288,5.27845 -3.35214,6.52475 0.26901,0.64384 1.13755,1.12035 2.2884,1.2555 0.56584,0.0665 2.43175,-0.0402 3.82131,-0.21834 z"
         style="fill:#000000;fill-opacity:1;stroke-width:0.08928572" />
    </g>
  </g>
</svg>
