<!DOCTYPE svg PUBLIC "-//W3C//DTD SVG 1.1//EN" "http://www.w3.org/Graphics/SVG/1.1/DTD/svg11.dtd">
<svg xmlns="http://www.w3.org/2000/svg" xmlns:xlink="http://www.w3.org/1999/xlink" version="1.1" color="black" width="816.00px" height="1056.00px">
<style type="text/css">
.fill {fill: currentColor}
.stroke {stroke: currentColor; fill: none}
text{white-space: pre}
</style>
<title>/tera/gill/PycharmProjects/MusicRaft/share/abc/new.abc page 1</title>
<!-- Creator: abcm2ps-8.14.2 -->
<!-- CreationDate: Feb 11, 2020 13:42 -->
<!-- CommandLine: -k 640 -v -A -O /tera/gill/PycharmProjects/MusicRaft/share/abc/new_page_.svg /tera/gill/PycharmProjects/MusicRaft/share/abc/new.abc -->
<g stroke-width="0.70">
<circle fill="none" r="7" stroke="red" stroke-width="2" cx="285.90" cy="118.80"/><defs>
<g id="rdots" class="fill">
	<circle cx="0" cy="-9" r="1.2"/>
	<circle cx="0" cy="-15" r="1.2"/>
</g>
</defs>
<use x="126.20" y="118.80" xlink:href="#rdots"/>
<path class="stroke" stroke-width="1" d="M122.20 118.80v-24.00"/>
<path class="stroke" stroke-width="3" d="M117.70 118.80v-24.00"/>
<abc type="B" row="12" col="0" x="109.20" y="90.80" width="28.00" height="32"/>
<path class="stroke" stroke-width="1" d="M267.90 118.80v-24.00"/>
<abc type="B" row="12" col="7" x="257.90" y="90.80" width="20.00" height="32"/>
<path class="stroke" stroke-width="1" d="M474.60 118.80v-24.00"/>
<abc type="B" row="12" col="16" x="464.60" y="90.80" width="20.00" height="32"/>
<path class="stroke" stroke-width="1" d="M748.80 118.80v-24.00"/>
<abc type="B" row="12" col="26" x="738.80" y="90.80" width="20.00" height="32"/>
<path d="m67.20 118.80  h681.60  M67.20 112.80  h681.60  M67.20 106.80  h681.60  M67.20 100.80  h681.60  M67.20 94.80  h681.60  " class="stroke"/>
<defs>
<path id="utclef" class="fill" d="m-50 -90  c-72 -41 -72 -158 52 -188  150 -10 220 188 90 256  -114 52 -275 0 -293 -136  -15 -181 93 -229 220 -334  88 -87 79 -133 62 -210  -51 33 -94 105 -89 186  17 267 36 374 49 574  6 96 -19 134 -77 135  -80 1 -126 -93 -61 -133  85 -41 133 101 31 105  23 17 92 37 90 -92  -10 -223 -39 -342 -50 -617  0 -90 0 -162 96 -232  56 72 63 230 22 289  -74 106 -257 168 -255 316  9 153 148 185 252 133  86 -65 29 -192 -80 -176  -71 12 -105 67 -59 124"/>
<use id="tclef" transform="translate(0,6) scale(0.045)" xlink:href="#utclef"/>
</defs>
<use x="79.20" y="112.80" xlink:href="#tclef"/>
<abc type="c" row="12" col="0" x="65.20" y="82.80" width="28.00" height="46"/>
<defs>
<path id="csig" class="fill" d="  m6 -5.3  c0.9 0 2.3 0.7 2.4 2.2  -1.2 -2 -3.6 0.1 -1.6 1.7  2 1 3.8 -3.5 -0.8 -4.7  -2 -0.4 -6.4 1.3 -5.8 7  0.4 6.4 7.9 6.8 9.1 0.7  -2.3 5.6 -6.7 5.1 -6.8 0  -0.5 -4.4 0.7 -7.5 3.5 -6.9"/>
</defs>
<use x="92.70" y="106.80" xlink:href="#csig"/>
<abc type="M" row="12" col="0" x="89.20" y="90.80" width="24.00" height="32"/>
<defs>
<path id="hl" class="stroke" d="m-6 0h12"/>
</defs>
<use x="145.20" y="124.80" xlink:href="#hl"/>
<defs>
<path id="Hd" class="fill" d="m3 -1.6  c-1 -1.8 -7 1.4 -6 3.2  1 1.8 7 -1.4 6 -3.2  m0.5 -0.3  c2 3.8 -5 7.6 -7 3.8  -2 -3.8 5 -7.6 7 -3.8"/>
</defs>
<use x="145.20" y="124.80" xlink:href="#Hd"/>
<path d="M148.70 124.80v-21.00" class="stroke"/>
<abc type="N" row="12" col="3" x="138.20" y="99.80" width="14.00" height="31"/>
<use x="217.40" y="121.80" xlink:href="#Hd"/>
<path d="M220.90 121.80v-21.00" class="stroke"/>
<abc type="N" row="12" col="5" x="210.40" y="96.80" width="14.00" height="31"/>
<defs>
<ellipse id="hd" rx="4.1" ry="2.9" transform="rotate(-20)" class="fill"/>
</defs>
<use x="285.90" y="118.80" xlink:href="#hd"/>
<path d="M289.40 118.80v-21.00" class="stroke"/>
<abc type="N" row="12" col="8" x="279.40" y="93.80" width="13.00" height="31"/>
<use x="336.90" y="115.80" xlink:href="#hd"/>
<path d="M340.40 115.80v-21.00" class="stroke"/>
<abc type="N" row="12" col="10" x="330.40" y="90.80" width="13.00" height="31"/>
<use x="387.90" y="112.80" xlink:href="#hd"/>
<path d="M391.40 112.80v-21.00" class="stroke"/>
<abc type="N" row="12" col="12" x="381.40" y="87.80" width="13.00" height="31"/>
<use x="438.90" y="109.80" xlink:href="#hd"/>
<path d="M442.40 109.80v-21.00" class="stroke"/>
<abc type="N" row="12" col="14" x="432.40" y="84.80" width="13.00" height="31"/>
<abc type="b" row="12" col="17" x="486.20" y="124.80" width="6.00" height="6"/>
<path class="fill" d="M488.80 127.10l98.10 -7.60v-3.20l-98.10 7.60"/>
<use x="492.70" y="106.80" xlink:href="#hd"/>
<path d="M489.20 106.80v19.30" class="stroke"/>
<abc type="N" row="12" col="17" x="486.20" y="100.80" width="13.00" height="30"/>
<use x="525.10" y="103.80" xlink:href="#hd"/>
<path d="M521.60 103.80v19.80" class="stroke"/>
<abc type="N" row="12" col="18" x="518.60" y="97.80" width="13.00" height="31"/>
<use x="557.60" y="100.80" xlink:href="#hd"/>
<path d="M554.10 100.80v20.20" class="stroke"/>
<abc type="N" row="12" col="19" x="551.10" y="94.80" width="13.00" height="31"/>
<use x="590.10" y="97.80" xlink:href="#hd"/>
<path d="M586.60 97.80v20.70" class="stroke"/>
<abc type="N" row="12" col="20" x="583.60" y="91.80" width="13.00" height="32"/>
<abc type="e" row="12" col="20" x="583.60" y="117.80" width="6.00" height="6"/>
<abc type="b" row="12" col="22" x="619.60" y="113.80" width="6.00" height="6"/>
<path class="fill" d="M622.30 115.10l98.10 -7.60v-3.20l-98.10 7.60"/>
<use x="626.10" y="94.80" xlink:href="#hd"/>
<path d="M622.60 94.80v19.30" class="stroke"/>
<abc type="N" row="12" col="22" x="619.60" y="88.80" width="13.00" height="31"/>
<use x="658.60" y="91.80" xlink:href="#hd"/>
<path d="M655.10 91.80v19.80" class="stroke"/>
<abc type="N" row="12" col="23" x="652.10" y="85.80" width="13.00" height="32"/>
<use x="691.10" y="88.80" xlink:href="#hl"/>
<use x="691.10" y="88.80" xlink:href="#hd"/>
<path d="M687.60 88.80v20.20" class="stroke"/>
<abc type="N" row="12" col="24" x="684.60" y="82.80" width="13.00" height="32"/>
<use x="723.50" y="88.80" xlink:href="#hl"/>
<use x="723.50" y="85.80" xlink:href="#hd"/>
<path d="M720.00 85.80v20.70" class="stroke"/>
<abc type="N" row="12" col="25" x="715.50" y="79.80" width="14.50" height="33"/>
<abc type="e" row="12" col="25" x="715.50" y="106.80" width="6.00" height="6"/>
</g>
<g stroke-width="0.70">
<path class="stroke" stroke-width="3" d="M281.70 192.80v-24.00"/>
<path class="stroke" stroke-width="1" d="M277.20 192.80v-24.00"/>
<use x="273.20" y="192.80" xlink:href="#rdots"/>
<abc type="B" row="13" col="16" x="265.20" y="164.80" width="25.00" height="32"/>
<path d="m67.20 192.80  h216.00  M67.20 186.80  h216.00  M67.20 180.80  h216.00  M67.20 174.80  h216.00  M67.20 168.80  h216.00  " class="stroke"/>
<use x="79.20" y="186.80" xlink:href="#tclef"/>
<abc type="c" row="13" col="0" x="65.20" y="156.80" width="28.00" height="46"/>
<abc type="b" row="13" col="0" x="89.20" y="179.80" width="6.00" height="6"/>
<path class="fill" d="M99.90 181.00l75.10 0.00v-3.20l-75.10 -0.00"/>
<path class="fill" d="M100.20 176.00l74.40 0.00v-3.20l-74.40 -0.00"/>
<use x="103.70" y="162.80" xlink:href="#hl"/>
<use x="103.70" y="156.80" xlink:href="#hl"/>
<use x="103.70" y="156.80" xlink:href="#hd"/>
<path d="M100.20 156.80v23.20" class="stroke"/>
<abc type="N" row="13" col="0" x="89.20" y="150.80" width="21.00" height="35"/>
<use x="128.50" y="162.80" xlink:href="#hl"/>
<use x="128.50" y="156.80" xlink:href="#hl"/>
<use x="128.50" y="153.80" xlink:href="#hd"/>
<path d="M125.00 153.80v26.20" class="stroke"/>
<abc type="N" row="13" col="3" x="120.50" y="147.80" width="14.50" height="38"/>
<use x="153.30" y="162.80" xlink:href="#hl"/>
<use x="153.30" y="156.80" xlink:href="#hl"/>
<use x="153.30" y="150.80" xlink:href="#hl"/>
<use x="153.30" y="150.80" xlink:href="#hd"/>
<path d="M149.80 150.80v29.20" class="stroke"/>
<abc type="N" row="13" col="6" x="145.30" y="144.80" width="14.50" height="41"/>
<use x="178.10" y="162.80" xlink:href="#hl"/>
<use x="178.10" y="156.80" xlink:href="#hl"/>
<use x="178.10" y="150.80" xlink:href="#hl"/>
<use x="178.10" y="147.80" xlink:href="#hd"/>
<path d="M174.60 147.80v32.20" class="stroke"/>
<abc type="N" row="13" col="9" x="170.10" y="141.80" width="14.50" height="44"/>
<abc type="e" row="13" col="9" x="170.10" y="179.80" width="6.00" height="6"/>
<defs>
<path id="ubclef" class="fill" d="m-200 -87  c124 -35 222 -78 254 -236  43 -228 -167 -246 -192 -103  59 -80 157 22 92 78  -62 47 -115 -22 -106 -88  21 -141 270 -136 274 52  -1 175 -106 264 -322 297  m357 -250  c0 -36 51 -34 51 0  0 37 -51 36 -51 0  m-2 -129  c0 -36 51 -34 51 0  0 38 -51 37 -51 0"/>
<use id="sbclef" transform="translate(0,14.5) scale(0.037)" xlink:href="#ubclef"/>
</defs>
<use x="197.20" y="174.80" xlink:href="#sbclef"/>
<abc type="c" row="13" col="9" x="183.20" y="164.80" width="26.00" height="31"/>
<use x="212.20" y="183.80" xlink:href="#Hd"/>
<circle class="fill" cx="220.90" cy="183.80" r="1.2"/>
<path d="M215.70 183.80v-21.00" class="stroke"/>
<abc type="N" row="13" col="13" x="205.20" y="158.80" width="22.00" height="31"/>
</g>
</svg>