<?xml version="1.0" encoding="UTF-8" standalone="no"?>
<!-- Created with Inkscape (http://www.inkscape.org/) -->

<svg
   xmlns:dc="http://purl.org/dc/elements/1.1/"
   xmlns:cc="http://creativecommons.org/ns#"
   xmlns:rdf="http://www.w3.org/1999/02/22-rdf-syntax-ns#"
   xmlns:svg="http://www.w3.org/2000/svg"
   xmlns="http://www.w3.org/2000/svg"
   xmlns:xlink="http://www.w3.org/1999/xlink"
   xmlns:sodipodi="http://sodipodi.sourceforge.net/DTD/sodipodi-0.dtd"
   xmlns:inkscape="http://www.inkscape.org/namespaces/inkscape"
   height="331.62186"
   id="svg1"
   inkscape:version="0.92.4 (5da689c313, 2019-01-14)"
   sodipodi:docname="projectlogo.svg"
   sodipodi:version="0.32"
   width="306.23346"
   inkscape:output_extension="org.inkscape.output.svg.inkscape"
   version="1.0"
   inkscape:export-filename="/home/hartmut/projekte/software/misc/logo.png"
   inkscape:export-xdpi="27.139343"
   inkscape:export-ydpi="27.139343">
  <defs
     id="defs3">
    <marker
       inkscape:stockid="Arrow2Mend"
       orient="auto"
       refY="0"
       refX="0"
       id="Arrow2Mend"
       style="overflow:visible">
      <path
         id="path14589"
         style="font-size:12px;fill-rule:evenodd;stroke-width:0.625;stroke-linejoin:round"
         d="M 8.7185878,4.0337352 L -2.2072895,0.016013256 L 8.7185884,-4.0017078 C 6.97309,-1.6296469 6.9831476,1.6157441 8.7185878,4.0337352 z "
         transform="scale(-0.6,-0.6)" />
    </marker>
    <marker
       inkscape:stockid="Arrow2Lend"
       orient="auto"
       refY="0"
       refX="0"
       id="Arrow2Lend"
       style="overflow:visible">
      <path
         id="path14583"
         style="font-size:12px;fill-rule:evenodd;stroke-width:0.625;stroke-linejoin:round"
         d="M 8.7185878,4.0337352 L -2.2072895,0.016013256 L 8.7185884,-4.0017078 C 6.97309,-1.6296469 6.9831476,1.6157441 8.7185878,4.0337352 z "
         transform="matrix(-1.1,0,0,-1.1,-1.1,0)" />
    </marker>
    <marker
       inkscape:stockid="Arrow1Lend"
       orient="auto"
       refY="0"
       refX="0"
       id="Arrow1Lend"
       style="overflow:visible">
      <path
         id="path14565"
         d="M 0,0 L 5,-5 L -12.5,0 L 5,5 L 0,0 z "
         style="fill-rule:evenodd;stroke:#000000;stroke-width:1pt;marker-start:none"
         transform="matrix(-0.8,0,0,-0.8,-10,0)" />
    </marker>
    <radialGradient
       cx="0.5"
       cy="0.5"
       fx="0.5"
       fy="0.14942528"
       id="radialGradient864"
       r="0.5"
       xlink:href="#linearGradient853" />
    <linearGradient
       id="linearGradient841">
      <stop
         id="stop842"
         offset="0.00000000"
         style="stop-color:#ffffff;stop-opacity:1.0000000;" />
      <stop
         id="stop843"
         offset="1.0000000"
         style="stop-color:#ffffff;stop-opacity:0.00000000;" />
    </linearGradient>
    <linearGradient
       id="linearGradient1290">
      <stop
         id="stop1291"
         offset="0.0000000"
         style="stop-color:#df421e;stop-opacity:1.0000000;" />
      <stop
         id="stop1292"
         offset="1.0000000"
         style="stop-color:#990000;stop-opacity:1.0000000;" />
    </linearGradient>
    <linearGradient
       id="linearGradient846">
      <stop
         id="stop847"
         offset="0.00000000"
         style="stop-color:#e7e7e7;stop-opacity:1.0000000;" />
      <stop
         id="stop848"
         offset="1.0000000"
         style="stop-color:#a5a5a5;stop-opacity:1.0000000;" />
    </linearGradient>
    <linearGradient
       id="linearGradient853">
      <stop
         id="stop854"
         offset="0.00000000"
         style="stop-color:#000000;stop-opacity:0.29752067;" />
      <stop
         id="stop855"
         offset="1.0000000"
         style="stop-color:#000000;stop-opacity:0.00000000;" />
    </linearGradient>
    <radialGradient
       cx="0.5"
       cy="0.5"
       fx="0.50704223"
       fy="0.29885057"
       id="radialGradient861"
       r="0.5"
       xlink:href="#linearGradient853" />
    <linearGradient
       id="linearGradient1507">
      <stop
         id="stop1508"
         offset="0.0000000"
         style="stop-color:#000000;stop-opacity:0.095505618;" />
      <stop
         id="stop1510"
         offset="1.0000000"
         style="stop-color:#000000;stop-opacity:0.0000000;" />
    </linearGradient>
    <linearGradient
       id="linearGradient1501">
      <stop
         id="stop1502"
         offset="0.0000000"
         style="stop-color:#ffffff;stop-opacity:1.0000000;" />
      <stop
         id="stop1504"
         offset="1.0000000"
         style="stop-color:#ffffff;stop-opacity:0.0000000;" />
    </linearGradient>
    <linearGradient
       id="linearGradient1492">
      <stop
         id="stop1493"
         offset="0.0000000"
         style="stop-color:#dadada;stop-opacity:1.0000000;" />
      <stop
         id="stop1496"
         offset="0.34923077"
         style="stop-color:#f1f1f1;stop-opacity:1.0000000;" />
      <stop
         id="stop1494"
         offset="1.0000000"
         style="stop-color:#f0f0f0;stop-opacity:1.0000000;" />
    </linearGradient>
    <linearGradient
       id="linearGradient1495"
       x1="0.88034189"
       x2="0.085470088"
       xlink:href="#linearGradient1492"
       y1="0.2109375"
       y2="1.1796875" />
    <linearGradient
       id="linearGradient1497"
       x1="0.63247865"
       x2="-0.37606838"
       xlink:href="#linearGradient1492"
       y1="0.328125"
       y2="1.328125" />
    <linearGradient
       id="linearGradient1499"
       x1="0.85826772"
       x2="0.062992126"
       xlink:href="#linearGradient1501"
       y1="0.140625"
       y2="0.546875" />
    <linearGradient
       id="linearGradient1506"
       x1="0.052173913"
       x2="0.78260869"
       xlink:href="#linearGradient1507"
       y1="0.9765625"
       y2="0.0078125" />
    <linearGradient
       id="linearGradient1556"
       x1="0.11904762"
       x2="0.86507934"
       xlink:href="#linearGradient1290"
       y1="0.12244898"
       y2="0.80272108" />
    <radialGradient
       cx="0.5"
       cy="0.89285713"
       fx="0.5411765"
       fy="3.52"
       id="radialGradient856"
       r="0.5460667"
       xlink:href="#linearGradient841" />
    <linearGradient
       id="linearGradient1944"
       x1="0.10967742"
       x2="0.63870966"
       xlink:href="#linearGradient853"
       y1="1.6060606"
       y2="0.38636363" />
    <linearGradient
       id="linearGradient852"
       xlink:href="#linearGradient841" />
    <linearGradient
       id="linearGradient844"
       x1="6.8169212e-18"
       x2="1"
       xlink:href="#linearGradient841"
       y1="0.5"
       y2="0.5" />
    <linearGradient
       id="linearGradient845"
       x1="1.3633842e-17"
       x2="1"
       xlink:href="#linearGradient841"
       y1="0.5"
       y2="0.5" />
    <linearGradient
       id="linearGradient840"
       xlink:href="#linearGradient853" />
    <linearGradient
       id="linearGradient849"
       xlink:href="#linearGradient846" />
    <linearGradient
       id="linearGradient860"
       xlink:href="#linearGradient1290" />
    <linearGradient
       id="linearGradient851"
       xlink:href="#linearGradient846" />
    <linearGradient
       id="linearGradient858"
       xlink:href="#linearGradient846" />
    <linearGradient
       id="linearGradient850"
       xlink:href="#linearGradient846" />
    <linearGradient
       id="linearGradient859"
       xlink:href="#linearGradient853" />
    <linearGradient
       inkscape:collect="always"
       xlink:href="#linearGradient1507"
       id="linearGradient2346"
       x1="201.38963"
       y1="843.20789"
       x2="547.80804"
       y2="383.76529"
       gradientTransform="scale(0.9446888,1.0585496)"
       gradientUnits="userSpaceOnUse" />
    <linearGradient
       inkscape:collect="always"
       xlink:href="#linearGradient1507"
       id="linearGradient2348"
       x1="207.86864"
       y1="836.03088"
       x2="544.78693"
       y2="389.18799"
       gradientTransform="scale(0.9431813,1.0602415)"
       gradientUnits="userSpaceOnUse" />
    <linearGradient
       inkscape:collect="always"
       xlink:href="#linearGradient1507"
       id="linearGradient2350"
       gradientUnits="userSpaceOnUse"
       gradientTransform="scale(0.9446888,1.0585496)"
       x1="201.38963"
       y1="843.20789"
       x2="547.80804"
       y2="383.76529" />
    <linearGradient
       inkscape:collect="always"
       xlink:href="#linearGradient1507"
       id="linearGradient2352"
       gradientUnits="userSpaceOnUse"
       gradientTransform="scale(0.9446888,1.0585496)"
       x1="201.38963"
       y1="843.20789"
       x2="547.80804"
       y2="383.76529" />
    <linearGradient
       inkscape:collect="always"
       xlink:href="#linearGradient1492"
       id="linearGradient2354"
       x1="728.96643"
       y1="230.07422"
       x2="351.7063"
       y2="689.86005"
       gradientTransform="matrix(0.2834641,0,0,0.3105309,-129.68862,15.505363)"
       gradientUnits="userSpaceOnUse" />
    <linearGradient
       inkscape:collect="always"
       xlink:href="#linearGradient1492"
       id="linearGradient2356"
       x1="741.63898"
       y1="169.4436"
       x2="622.33325"
       y2="287.73825"
       gradientTransform="matrix(0.2834248,0,0,0.310574,-129.68862,15.505363)"
       gradientUnits="userSpaceOnUse" />
    <linearGradient
       inkscape:collect="always"
       xlink:href="#linearGradient1501"
       id="linearGradient2358"
       x1="687.96375"
       y1="236.12772"
       x2="330.88034"
       y2="418.53635"
       gradientTransform="matrix(0.2934281,0,0,0.2999861,-129.68862,15.505363)"
       gradientUnits="userSpaceOnUse" />
    <linearGradient
       inkscape:collect="always"
       xlink:href="#linearGradient853"
       id="linearGradient2360"
       x1="22.405666"
       y1="22.397957"
       x2="78.384125"
       y2="-106.66177"
       gradientTransform="scale(0.9208103,1.086)"
       gradientUnits="userSpaceOnUse" />
    <linearGradient
       inkscape:collect="always"
       xlink:href="#linearGradient853"
       id="linearGradient2362"
       x1="23.377766"
       y1="19.876423"
       x2="78.100548"
       y2="-106.28832"
       gradientTransform="scale(0.9201459,1.0867842)"
       gradientUnits="userSpaceOnUse" />
    <linearGradient
       inkscape:collect="always"
       xlink:href="#linearGradient853"
       id="linearGradient2364"
       gradientUnits="userSpaceOnUse"
       gradientTransform="scale(0.9208103,1.086)"
       x1="22.405666"
       y1="22.397957"
       x2="78.384125"
       y2="-106.66177" />
    <linearGradient
       inkscape:collect="always"
       xlink:href="#linearGradient1290"
       id="linearGradient2366"
       x1="42.438137"
       y1="30.568512"
       x2="129.23233"
       y2="109.71216"
       gradientTransform="matrix(0.9201458,0,0,1.0867842,-58.492609,49.563613)"
       gradientUnits="userSpaceOnUse" />
    <linearGradient
       inkscape:collect="always"
       xlink:href="#linearGradient1507"
       id="linearGradient2454"
       gradientUnits="userSpaceOnUse"
       gradientTransform="scale(0.9446888,1.0585496)"
       x1="201.38963"
       y1="843.20789"
       x2="547.80804"
       y2="383.76529" />
    <linearGradient
       inkscape:collect="always"
       xlink:href="#linearGradient1507"
       id="linearGradient2456"
       gradientUnits="userSpaceOnUse"
       gradientTransform="scale(0.9431813,1.0602415)"
       x1="207.86864"
       y1="836.03088"
       x2="544.78693"
       y2="389.18799" />
    <linearGradient
       inkscape:collect="always"
       xlink:href="#linearGradient1507"
       id="linearGradient2458"
       gradientUnits="userSpaceOnUse"
       gradientTransform="scale(0.9446888,1.0585496)"
       x1="201.38963"
       y1="843.20789"
       x2="547.80804"
       y2="383.76529" />
    <linearGradient
       inkscape:collect="always"
       xlink:href="#linearGradient1507"
       id="linearGradient2460"
       gradientUnits="userSpaceOnUse"
       gradientTransform="scale(0.9446888,1.0585496)"
       x1="201.38963"
       y1="843.20789"
       x2="547.80804"
       y2="383.76529" />
    <linearGradient
       inkscape:collect="always"
       xlink:href="#linearGradient1492"
       id="linearGradient2462"
       gradientUnits="userSpaceOnUse"
       gradientTransform="matrix(0.2834641,0,0,0.3105309,-129.68862,15.505363)"
       x1="728.96643"
       y1="230.07422"
       x2="351.7063"
       y2="689.86005" />
    <linearGradient
       inkscape:collect="always"
       xlink:href="#linearGradient1492"
       id="linearGradient2464"
       gradientUnits="userSpaceOnUse"
       gradientTransform="matrix(0.2834248,0,0,0.310574,-129.68862,15.505363)"
       x1="741.63898"
       y1="169.4436"
       x2="622.33325"
       y2="287.73825" />
    <linearGradient
       inkscape:collect="always"
       xlink:href="#linearGradient1501"
       id="linearGradient2466"
       gradientUnits="userSpaceOnUse"
       gradientTransform="matrix(0.2934281,0,0,0.2999861,-129.68862,15.505363)"
       x1="687.96375"
       y1="236.12772"
       x2="330.88034"
       y2="418.53635" />
    <linearGradient
       inkscape:collect="always"
       xlink:href="#linearGradient853"
       id="linearGradient2468"
       gradientUnits="userSpaceOnUse"
       gradientTransform="scale(0.9208103,1.086)"
       x1="22.405666"
       y1="22.397957"
       x2="78.384125"
       y2="-106.66177" />
    <linearGradient
       inkscape:collect="always"
       xlink:href="#linearGradient853"
       id="linearGradient2470"
       gradientUnits="userSpaceOnUse"
       gradientTransform="scale(0.9201459,1.0867842)"
       x1="23.377766"
       y1="19.876423"
       x2="78.100548"
       y2="-106.28832" />
    <linearGradient
       inkscape:collect="always"
       xlink:href="#linearGradient853"
       id="linearGradient2472"
       gradientUnits="userSpaceOnUse"
       gradientTransform="scale(0.9208103,1.086)"
       x1="22.405666"
       y1="22.397957"
       x2="78.384125"
       y2="-106.66177" />
    <linearGradient
       inkscape:collect="always"
       xlink:href="#linearGradient1290"
       id="linearGradient2474"
       gradientUnits="userSpaceOnUse"
       gradientTransform="matrix(0.9201458,0,0,1.0867842,-58.492609,49.563613)"
       x1="42.438137"
       y1="30.568512"
       x2="129.23233"
       y2="109.71216" />
    <linearGradient
       inkscape:collect="always"
       xlink:href="#linearGradient1507"
       id="linearGradient2625"
       gradientUnits="userSpaceOnUse"
       gradientTransform="scale(0.9446888,1.0585496)"
       x1="201.38963"
       y1="843.20789"
       x2="547.80804"
       y2="383.76529" />
    <linearGradient
       inkscape:collect="always"
       xlink:href="#linearGradient1507"
       id="linearGradient2627"
       gradientUnits="userSpaceOnUse"
       gradientTransform="scale(0.9431813,1.0602415)"
       x1="207.86864"
       y1="836.03088"
       x2="544.78693"
       y2="389.18799" />
    <linearGradient
       inkscape:collect="always"
       xlink:href="#linearGradient1507"
       id="linearGradient2629"
       gradientUnits="userSpaceOnUse"
       gradientTransform="scale(0.9446888,1.0585496)"
       x1="201.38963"
       y1="843.20789"
       x2="547.80804"
       y2="383.76529" />
    <linearGradient
       inkscape:collect="always"
       xlink:href="#linearGradient1507"
       id="linearGradient2631"
       gradientUnits="userSpaceOnUse"
       gradientTransform="scale(0.9446888,1.0585496)"
       x1="201.38963"
       y1="843.20789"
       x2="547.80804"
       y2="383.76529" />
    <linearGradient
       inkscape:collect="always"
       xlink:href="#linearGradient1492"
       id="linearGradient2633"
       gradientUnits="userSpaceOnUse"
       gradientTransform="matrix(0.2834641,0,0,0.3105309,-129.68862,15.505363)"
       x1="728.96643"
       y1="230.07422"
       x2="351.7063"
       y2="689.86005" />
    <linearGradient
       inkscape:collect="always"
       xlink:href="#linearGradient1501"
       id="linearGradient2635"
       gradientUnits="userSpaceOnUse"
       gradientTransform="matrix(0.2934281,0,0,0.2999861,-129.68862,15.505363)"
       x1="687.96375"
       y1="236.12772"
       x2="330.88034"
       y2="418.53635" />
    <linearGradient
       inkscape:collect="always"
       xlink:href="#linearGradient853"
       id="linearGradient2637"
       gradientUnits="userSpaceOnUse"
       gradientTransform="scale(0.9208103,1.086)"
       x1="22.405666"
       y1="22.397957"
       x2="78.384125"
       y2="-106.66177" />
    <linearGradient
       inkscape:collect="always"
       xlink:href="#linearGradient853"
       id="linearGradient2639"
       gradientUnits="userSpaceOnUse"
       gradientTransform="scale(0.9201459,1.0867842)"
       x1="23.377766"
       y1="19.876423"
       x2="78.100548"
       y2="-106.28832" />
    <linearGradient
       inkscape:collect="always"
       xlink:href="#linearGradient853"
       id="linearGradient2641"
       gradientUnits="userSpaceOnUse"
       gradientTransform="scale(0.9208103,1.086)"
       x1="22.405666"
       y1="22.397957"
       x2="78.384125"
       y2="-106.66177" />
    <linearGradient
       inkscape:collect="always"
       xlink:href="#linearGradient1290"
       id="linearGradient2643"
       gradientUnits="userSpaceOnUse"
       gradientTransform="matrix(0.9201458,0,0,1.0867842,-58.492609,49.563613)"
       x1="42.438137"
       y1="30.568512"
       x2="129.23233"
       y2="109.71216" />
    <linearGradient
       inkscape:collect="always"
       xlink:href="#linearGradient1507"
       id="linearGradient2665"
       gradientUnits="userSpaceOnUse"
       gradientTransform="scale(0.9446888,1.0585496)"
       x1="201.38963"
       y1="843.20789"
       x2="547.80804"
       y2="383.76529" />
    <linearGradient
       inkscape:collect="always"
       xlink:href="#linearGradient1492"
       id="linearGradient2673"
       gradientUnits="userSpaceOnUse"
       gradientTransform="matrix(0.2834641,0,0,0.3105309,-129.68862,15.505363)"
       x1="728.96643"
       y1="230.07422"
       x2="351.7063"
       y2="689.86005" />
    <linearGradient
       inkscape:collect="always"
       xlink:href="#linearGradient1501"
       id="linearGradient2675"
       gradientUnits="userSpaceOnUse"
       gradientTransform="matrix(0.2934281,0,0,0.2999861,-129.68862,15.505363)"
       x1="687.96375"
       y1="236.12772"
       x2="330.88034"
       y2="418.53635" />
    <linearGradient
       inkscape:collect="always"
       xlink:href="#linearGradient853"
       id="linearGradient2677"
       gradientUnits="userSpaceOnUse"
       gradientTransform="scale(0.9208103,1.086)"
       x1="22.405666"
       y1="22.397957"
       x2="78.384125"
       y2="-106.66177" />
    <linearGradient
       inkscape:collect="always"
       xlink:href="#linearGradient1290"
       id="linearGradient2683"
       gradientUnits="userSpaceOnUse"
       gradientTransform="matrix(0.9201458,0,0,1.0867842,-58.492609,49.563613)"
       x1="42.438137"
       y1="30.568512"
       x2="129.23233"
       y2="109.71216" />
    <linearGradient
       inkscape:collect="always"
       xlink:href="#linearGradient1507"
       id="linearGradient2711"
       gradientUnits="userSpaceOnUse"
       gradientTransform="scale(0.9446888,1.0585496)"
       x1="201.38963"
       y1="843.20789"
       x2="547.80804"
       y2="383.76529" />
    <linearGradient
       inkscape:collect="always"
       xlink:href="#linearGradient853"
       id="linearGradient2723"
       gradientUnits="userSpaceOnUse"
       gradientTransform="scale(0.9208103,1.086)"
       x1="22.405666"
       y1="22.397957"
       x2="78.384125"
       y2="-106.66177" />
    <linearGradient
       inkscape:collect="always"
       xlink:href="#linearGradient1492"
       id="linearGradient3886"
       gradientUnits="userSpaceOnUse"
       gradientTransform="matrix(0.2834641,0,0,0.3105309,-127.68862,11.505363)"
       x1="728.96643"
       y1="230.07422"
       x2="351.7063"
       y2="689.86005" />
    <linearGradient
       inkscape:collect="always"
       xlink:href="#linearGradient1501"
       id="linearGradient3888"
       gradientUnits="userSpaceOnUse"
       gradientTransform="matrix(0.2934281,0,0,0.2999861,-129.68862,15.505363)"
       x1="687.96375"
       y1="236.12772"
       x2="330.88034"
       y2="418.53635" />
    <linearGradient
       inkscape:collect="always"
       xlink:href="#linearGradient853"
       id="linearGradient3890"
       gradientUnits="userSpaceOnUse"
       gradientTransform="scale(0.9201459,1.0867842)"
       x1="23.377766"
       y1="19.876423"
       x2="78.100548"
       y2="-106.28832" />
    <linearGradient
       inkscape:collect="always"
       xlink:href="#linearGradient853"
       id="linearGradient3892"
       gradientUnits="userSpaceOnUse"
       gradientTransform="scale(0.9208103,1.086)"
       x1="22.405666"
       y1="22.397957"
       x2="78.384125"
       y2="-106.66177" />
    <linearGradient
       inkscape:collect="always"
       xlink:href="#linearGradient853"
       id="linearGradient3894"
       gradientUnits="userSpaceOnUse"
       gradientTransform="scale(0.9208103,1.086)"
       x1="22.405666"
       y1="22.397957"
       x2="78.384125"
       y2="-106.66177" />
    <linearGradient
       inkscape:collect="always"
       xlink:href="#linearGradient1290"
       id="linearGradient3896"
       gradientUnits="userSpaceOnUse"
       gradientTransform="matrix(0.9201458,0,0,1.0867842,-58.492609,49.563613)"
       x1="42.438137"
       y1="30.568512"
       x2="129.23233"
       y2="109.71216" />
  </defs>
  <sodipodi:namedview
     bordercolor="#666666"
     borderopacity="1.0"
     id="base"
     inkscape:cx="134.17495"
     inkscape:cy="122.00419"
     inkscape:pageopacity="0.0"
     inkscape:pageshadow="2"
     inkscape:window-height="1025"
     inkscape:window-width="1920"
     inkscape:window-x="0"
     inkscape:window-y="0"
     inkscape:zoom="1.4142136"
     pagecolor="#ffffff"
     showgrid="true"
     inkscape:current-layer="layer2"
     inkscape:window-maximized="1" />
  <metadata
     id="metadata2330">
    <rdf:RDF>
      <cc:Work
         rdf:about="">
        <dc:title>pdfposter</dc:title>
        <dc:description />
        <dc:subject>
          <rdf:Bag />
        </dc:subject>
        <dc:publisher>
          <cc:Agent
             rdf:about="http://www.openclipart.org">
            <dc:title>Hartmut Goebel</dc:title>
          </cc:Agent>
        </dc:publisher>
        <dc:creator>
          <cc:Agent
             rdf:about="">
            <dc:title>Hartmut Goebel</dc:title>
          </cc:Agent>
        </dc:creator>
        <dc:rights>
          <cc:Agent
             rdf:about="">
            <dc:title>Hartmut Goebel</dc:title>
          </cc:Agent>
        </dc:rights>
        <dc:date />
        <dc:format>image/svg+xml</dc:format>
        <dc:type
           rdf:resource="http://purl.org/dc/dcmitype/StillImage" />
        <cc:license
           rdf:resource="http://web.resource.org/cc/PublicDomain">
          <dc:date />
        </cc:license>
        <dc:language>en</dc:language>
        <dc:source>https://pdfposter.readthedocs.io/</dc:source>
        <dc:contributor>
          <cc:Agent>
            <dc:title>Based on an Etiquette Icon by Andy Fitzsimon</dc:title>
          </cc:Agent>
        </dc:contributor>
      </cc:Work>
      <cc:License
         rdf:about="http://web.resource.org/cc/PublicDomain">
        <cc:permits
           rdf:resource="http://web.resource.org/cc/Reproduction" />
        <cc:permits
           rdf:resource="http://web.resource.org/cc/Distribution" />
        <cc:permits
           rdf:resource="http://web.resource.org/cc/DerivativeWorks" />
      </cc:License>
    </rdf:RDF>
  </metadata>
  <g
     inkscape:groupmode="layer"
     id="layer2"
     inkscape:label="klein"
     transform="translate(219.3628,140.93888)"
     style="display:inline">
    <g
       id="g2414"
       transform="translate(-173.85869,-165.15465)"
       inkscape:tile-cx="72.329846"
       inkscape:tile-cy="254.33615"
       inkscape:tile-w="135.94393"
       inkscape:tile-h="150.60802"
       inkscape:tile-x0="4.464503"
       inkscape:tile-y0="178.92522">
      <path
         style="fill:url(#linearGradient3886);fill-opacity:1;fill-rule:evenodd;stroke:#000000;stroke-width:0.42649043;stroke-opacity:0.36477984"
         sodipodi:nodetypes="ccccc"
         id="rect900"
         d="M -39.278163,52.075074 V 199.03202 H 94.832389 V 51.700179 Z"
         inkscape:connector-curvature="0" />
      <path
         style="fill:url(#linearGradient3888);fill-opacity:1;fill-rule:evenodd;stroke-width:1.00000003pt"
         sodipodi:nodetypes="cccczc"
         id="path1500"
         d="M -40.29428,67.398841 -40.898297,202.09436 H 90.777147 l 0.0755,-33.29637 C 87.908069,169.93052 58.160292,127.80042 20.711313,129.61247 -16.771666,131.42616 -7.0734132,72.834982 -40.29428,67.398841 Z"
         inkscape:connector-curvature="0" />
      <g
         transform="matrix(1.124728,0,0,0.821663,-42.385599,230.08751)"
         style="fill:url(#linearGradient3894)"
         id="g1660">
        <path
           style="fill:url(#linearGradient3890);fill-opacity:0.22641506"
           sodipodi:nodetypes="czcccccccccccccccczcczczcccccccccccccc"
           id="path1655"
           d="m 57.695066,-158.822 c -2.921863,0.4286 -4.522026,1.58708 -5.872332,6.492 -1.350307,4.90492 -0.04381,13.73468 1.809832,20.508 0.760315,2.25343 1.748858,4.43349 2.625,6.65625 -0.500069,3.35268 -1.108331,6.70446 -1.96875,10 -3.282648,13.45728 -7.013448,26.986334 -12.625,39.687504 -7.815904,3.84254 -15.414375,8.09869 -22.625,12.96875 -4.348826,2.72644 -12.3086924,10.3804 -5,14.40625 4.104251,2.3266 8.37575,1.85633 12.25,0 1.937125,-0.92817 3.765436,-2.22742 5.4375,-3.65625 1.672064,-1.42884 3.200121,-2.99637 4.46875,-4.5625 3.908769,-4.92691 7.264429,-10.19051 10.21875,-15.6875 11.710051,-5.26339 23.800272,-9.69229 36.250002,-12.78125 5.20573,4.54234 12.83694,9.11644 19.312502,4.59375 6.49188,-2.95732 5.40366,-11.731584 -2.000002,-11.843754 -4.90793,-0.97662 -9.78054,-0.37323 -14.59375,0.71875 -2.09807,-2.41293 -4.04582,-5.00743 -5.84375,-7.4375 -5.79724,-9.2227 -11.14624,-18.72508 -16.156252,-28.40625 1.357246,-8.879 2.749343,-18.75252 1.660442,-25.16959 -1.088901,-6.41706 -4.228546,-6.94424 -7.347942,-6.48666 z m -0.96875,6.65625 c 0.787292,-1.74588 2.816527,0.10374 2.781632,2.44016 -0.03489,2.33642 -0.40607,7.56692 -2.062882,9.02859 -1.237361,-3.7839 -1.506042,-9.72287 -0.71875,-11.46875 z m 4.3125,37.6875 c 4.557517,9.09518 10.090022,17.69698 17.000002,25.125 -2.03643,0.587324 -4.11482,1.144464 -6.125,1.656254 -7.420431,2.36897 -14.692558,5.21404 -21.843752,8.34375 5.079961,-11.175404 8.43344,-23.111934 10.96875,-35.125004 z m 31.406252,27.937504 c 2.61463,-0.02498 4.7028,0.64099 4.1875,3.125 -2.20415,-0.56293 -4.12452,-1.63625 -5.9375,-2.9375 0.59273,-0.06035 1.18689,-0.18212 1.75,-0.1875 z m -54.437502,18.5 c -0.556667,1.06312 -1.002365,2.17197 -1.59375,3.21875 -3.75141,5.75131 -9.178849,12.97653 -16.65625,12.84375 -2.233317,-6.2697 6.921103,-9.76559 11.1875,-12.59375 2.325196,-1.20903 4.70466,-2.31522 7.0625,-3.46875 z"
           inkscape:connector-curvature="0" />
        <path
           style="fill:url(#linearGradient3892);fill-opacity:0.22641506"
           id="path1659"
           d="m 57.625,-160.125 c -7.613026,1.28723 -8.139346,10.74989 -7.295921,16.8686 0.838916,6.22612 1.834976,12.49648 4.545921,18.22515 -3.315296,16.58663 -7.794417,32.961524 -14.28125,48.625 -9.994636,5.732803 -21.227934,10.304497 -29,19.0625 -2.6773834,3.390632 -2.2330925,9.091005 2.361866,10.513226 8.090708,4.421382 17.184271,-1.6695 22.346104,-7.884062 4.802839,-4.756444 7.400441,-11.415275 11.593913,-16.404182 11.275772,-4.752125 22.721395,-8.834009 34.479367,-12.224982 5.550204,4.709807 14.201847,8.944378 20.875,3.90625 6.29836,-2.468718 5.17544,-13.390692 -1.90252,-13.699157 C 96.257721,-94.389295 91.053325,-93.51196 85.96875,-92.75 77.324043,-103.30069 71.318026,-115.59853 64.75,-127.46875 c 0.844801,-9.85548 4.113438,-20.62677 -0.256658,-30.01614 -1.421017,-2.26489 -4.342269,-3.06077 -6.868342,-2.64011 z m 0.5,10.53125 c 0.633658,6.84495 -1.525029,-1.02045 0,0 z m 9.40625,49 c 2.583447,3.607075 5.236979,7.234831 8.1875,10.59375 -7.886604,2.297207 -15.64061,4.934897 -23.1875,8.1875 4.151748,-9.348383 6.379826,-19.36187 8.96875,-29.21875 2.010417,3.47917 4.020833,6.95833 6.03125,10.4375 z M 32.375,-61.46875 C 29.407679,-57.930437 25.829595,-54.070545 21,-53.5 c 0.834816,-6.017161 7.950475,-7.852322 12.388947,-10.843311 4.274738,-2.888899 -0.831181,1.951965 -1.013947,2.874561 z"
           inkscape:connector-curvature="0" />
      </g>
      <path
         style="fill:url(#linearGradient3896);fill-opacity:1"
         sodipodi:nodetypes="czcccccccccccccccczcczczcccccccccccccc"
         id="path900"
         d="m 20.250847,67.442326 c -3.2863,0.482058 -5.086048,1.785033 -6.604774,7.301731 -1.518728,5.516699 -0.04927,15.447773 2.035568,23.065913 0.855147,2.53449 1.966989,4.98647 2.95241,7.48647 -0.562442,3.77085 -1.246571,7.54069 -2.214308,11.24728 -3.692084,15.13577 -7.8882178,30.35227 -14.1996848,44.63763 -8.790763,4.32181 -17.3369732,9.10882 -25.4469612,14.58631 -4.891245,3.0665 -13.843925,11.67512 -5.623638,16.20311 4.616164,2.61679 9.420437,2.08786 13.777913,0 2.178737,-1.04394 4.235089,-2.50525 6.1157062,-4.11229 1.880616,-1.60706 3.599264,-3.3701 5.026126,-5.13157 4.39629999,-5.54143 8.170503,-11.46155 11.49331,-17.64416 13.1706168,-5.91988 26.7688218,-10.90119 40.7713768,-14.37543 5.85503,5.1089 14.43806,10.25351 21.7213,5.16672 7.3016,-3.32618 6.07765,-13.19484 -2.24945,-13.321 -5.52009,-1.09843 -11.00045,-0.41978 -16.414,0.8084 -2.35975,-2.71389 -4.55044,-5.632 -6.57262,-8.36516 -6.52032,-10.37303 -12.536488,-21.06062 -18.171386,-31.9493 1.526532,-9.986453 3.092261,-21.091473 1.867544,-28.308929 -1.224717,-7.217444 -4.755962,-7.810378 -8.264432,-7.295725 z m -1.08958,7.486468 c 0.885489,-1.96364 3.167825,0.116679 3.128578,2.744515 -0.03925,2.627836 -0.456718,8.510723 -2.32018,10.154704 -1.391694,-4.255857 -1.693887,-10.93558 -0.808398,-12.899219 z m 4.850387,42.388176 c 5.125965,10.2296 11.348526,19.90428 19.120367,28.25878 -2.290425,0.66058 -4.628047,1.28721 -6.888952,1.86283 -8.345963,2.66444 -16.525125,5.86438 -24.56827,9.38445 5.713572,-12.56929 9.485322,-25.99463 12.336855,-39.50606 z m 35.323477,31.42208 c 2.94075,-0.0281 5.28937,0.72094 4.7098,3.51477 -2.47907,-0.63314 -4.63896,-1.84034 -6.67807,-3.30389 0.66666,-0.0679 1.33493,-0.20483 1.96827,-0.21088 z m -61.2273578,20.80746 c -0.626099,1.19572 -1.127388,2.44287 -1.792535,3.62022 -4.219314,6.46865 -10.3237042,14.59506 -18.7337432,14.44572 -2.511874,-7.05171 7.784355,-10.98363 12.5828892,-14.16454 2.615212,-1.35983 5.291461,-2.60399 7.943389,-3.9014 z"
         inkscape:connector-curvature="0" />
    </g>
    <use
       x="0"
       y="0"
       inkscape:tiled-clone-of="#g2414"
       xlink:href="#g2414"
       transform="translate(-5.1654148e-6,150.60805)"
       id="use3844"
       width="100%"
       height="100%" />
    <use
       x="0"
       y="0"
       inkscape:tiled-clone-of="#g2414"
       xlink:href="#g2414"
       transform="matrix(0.89973818,0.46209976,-0.47855322,0.86880368,125.02824,70.631702)"
       id="use3846"
       width="100%"
       height="100%" />
    <use
       x="0"
       y="0"
       inkscape:tiled-clone-of="#g2414"
       xlink:href="#g2414"
       transform="translate(135.94393,150.60805)"
       id="use3848"
       width="100%"
       height="100%" />
  </g>
  <g
     inkscape:groupmode="layer"
     id="layer1"
     inkscape:label="poster"
     transform="translate(219.3628,140.93888)"
     style="display:inline">
    <g
       id="g2599"
       transform="matrix(1.6669053,0,0,1.6669053,29.635981,-137.50453)" />
    <path
       style="display:inline;opacity:1;fill:#0000ff;fill-opacity:1;fill-rule:evenodd;stroke:#0000ff;stroke-width:1.91869032;stroke-linecap:butt;stroke-linejoin:miter;stroke-miterlimit:4;stroke-dasharray:none;stroke-opacity:1"
       d="m -78.813057,-113.66828 c 0,344.82189 0,294.5098 0,294.5098"
       id="path13461"
       sodipodi:nodetypes="cc"
       inkscape:connector-curvature="0" />
    <path
       style="display:inline;opacity:1;fill:#0000ff;fill-opacity:1;fill-rule:evenodd;stroke:#0000ff;stroke-width:1.89984894;stroke-linecap:butt;stroke-linejoin:miter;stroke-miterlimit:4;stroke-dasharray:none;stroke-opacity:1"
       d="m -213.08236,35.439977 c 338.08288,0 261.683362,0 261.683362,0"
       id="path13577"
       sodipodi:nodetypes="cc"
       inkscape:connector-curvature="0" />
  </g>
  <g
     inkscape:groupmode="layer"
     id="layer3"
     inkscape:label="scale"
     transform="translate(0.9247346,45.118268)"
     style="display:none" />
</svg>
