<?xml version="1.0" encoding="UTF-8"?>
<svg width="297px" height="224px" viewBox="0 0 297 224" version="1.1" xmlns="http://www.w3.org/2000/svg" xmlns:xlink="http://www.w3.org/1999/xlink">
    <!-- Generator: Sketch 61.2 (89653) - https://sketch.com -->
    <title>Fill 1</title>
    <desc>Created with Sketch.</desc>
    <defs>
        <linearGradient x1="50%" y1="0%" x2="50%" y2="100%" id="linearGradient-1">
            <stop stop-color="#8D5AFF" offset="0%"></stop>
            <stop stop-color="#6236FF" offset="100%"></stop>
        </linearGradient>
    </defs>
    <g id="Dashboard-Launch-Version-v2" stroke="none" stroke-width="1" fill="none" fill-rule="evenodd">
        <g id="Dashboard-w/-Navbar-desktop" transform="translate(-378.000000, -195.000000)" fill="url(#linearGradient-1)">
            <g id="main-panels" transform="translate(378.000000, 194.500000)">
                <g id="explore">
                    <g id="explore_bg" transform="translate(0.000000, 0.500000)">
                        <path d="M291.764423,39.5732515 C289.679712,26.8972941 280.259481,16.6400371 267.718846,13.5074512 C245.481923,7.95049146 204.945231,0.425855513 148.5,0.425855513 C91.9167404,0.425855513 51.3200769,7.98736766 29.1174231,13.5481096 C16.6215288,16.6778589 7.17845192,26.8613634 5.09278846,39.4938259 C2.60636538,54.5449889 0,78.3528311 0,112 C0,145.743614 2.62159615,169.592115 5.11373077,184.636659 C7.19749038,197.218062 16.5682212,207.393057 29.0060481,210.54739 C50.8964712,216.097731 91.042875,223.574144 148.5,223.574144 C205.749606,223.574144 245.813192,216.152573 267.755019,210.607905 C280.208077,207.461136 289.590231,197.257775 291.656856,184.660298 C294.213721,169.07112 297,144.51819 297,111.527228 C297,78.9967463 294.291779,54.9402261 291.764423,39.5732515" id="Fill-1"></path>
                    </g>
                </g>
            </g>
        </g>
    </g>
</svg>