<?xml version="1.0" encoding="UTF-8"?>
<svg width="43px" height="43px" viewBox="0 0 43 43" version="1.1" xmlns="http://www.w3.org/2000/svg" xmlns:xlink="http://www.w3.org/1999/xlink">
    <!-- Generator: Sketch 53.2 (72643) - https://sketchapp.com -->
    <title>info</title>
    <desc>Created with Sketch.</desc>
    <g id="Dashboard-Launch-Version-v2" stroke="none" stroke-width="1" fill="none" fill-rule="evenodd">
        <g id="Dashboard-w/-Navbar" transform="translate(-1335.000000, -61.000000)">
            <g id="info" transform="translate(1335.000000, 61.000000)">
                <circle id="Oval" fill="#0091FF" cx="21.5" cy="21.5" r="21.5"></circle>
                <path d="M23.6896362,18.0146484 L23.6896362,30.7280273 C23.6896362,31.6088911 23.4801657,32.2749001 23.0612183,32.7260742 C22.6422708,33.1772483 22.1105379,33.402832 21.4660034,33.402832 C20.8214689,33.402832 20.2977925,33.1718773 19.8949585,32.7099609 C19.4921244,32.2480446 19.2907104,31.5874066 19.2907104,30.7280273 L19.2907104,18.1435547 C19.2907104,17.2734331 19.4921244,16.6181663 19.8949585,16.1777344 C20.2977925,15.7373025 20.8214689,15.5170898 21.4660034,15.5170898 C22.1105379,15.5170898 22.6422708,15.7373025 23.0612183,16.1777344 C23.4801657,16.6181663 23.6896362,17.2304648 23.6896362,18.0146484 Z M21.5143433,13.4707031 C20.9020355,13.4707031 20.3783591,13.2827167 19.9432983,12.9067383 C19.5082376,12.5307598 19.2907104,11.9990269 19.2907104,11.3115234 C19.2907104,10.6884734 19.5136086,10.1755391 19.9594116,9.77270508 C20.4052146,9.36987103 20.92352,9.16845703 21.5143433,9.16845703 C22.083682,9.16845703 22.5885598,9.35107239 23.0289917,9.71630859 C23.4694236,10.0815448 23.6896362,10.6132778 23.6896362,11.3115234 C23.6896362,11.9882846 23.4747946,12.5173321 23.045105,12.8986816 C22.6154153,13.2800312 22.1051665,13.4707031 21.5143433,13.4707031 Z" id="i" fill="#FFFFFF" fill-rule="nonzero"></path>
            </g>
        </g>
    </g>
</svg>