<?xml version="1.0" encoding="UTF-8"?>
<svg width="23px" height="23px" viewBox="0 0 23 23" version="1.1" xmlns="http://www.w3.org/2000/svg" xmlns:xlink="http://www.w3.org/1999/xlink">
    <!-- Generator: Sketch 53.2 (72643) - https://sketchapp.com -->
    <title>gasp!</title>
    <desc>Created with Sketch.</desc>
    <g id="Dashboard-Launch-Version-v2" stroke="none" stroke-width="1" fill="none" fill-rule="evenodd">
        <g id="Dashboard-w/-Navbar" transform="translate(-485.000000, -81.000000)">
            <g id="Group" transform="translate(485.000000, 61.000000)">
                <g id="gasp!" transform="translate(0.000000, 18.000000)">
                    <circle id="Oval" fill="#E02020" cx="11.5" cy="13.5" r="11.5"></circle>
                    <path d="M10.3118083,14.1787109 L9.96805826,9.03320312 C9.90360481,8.03059395 9.87137857,7.31087458 9.87137857,6.87402344 C9.87137857,6.27961942 10.0271387,5.81591963 10.3386637,5.48291016 C10.6501887,5.14990068 11.0601781,4.98339844 11.5686442,4.98339844 C12.1845327,4.98339844 12.5963124,5.19644969 12.8039958,5.62255859 C13.0116791,6.0486675 13.1155192,6.66275641 13.1155192,7.46484375 C13.1155192,7.93750236 13.0904543,8.41731527 13.0403239,8.90429688 L12.5784098,14.2001953 C12.5282794,14.8304068 12.4208586,15.3138004 12.2561442,15.6503906 C12.0914298,15.9869808 11.8192971,16.1552734 11.4397379,16.1552734 C11.0530173,16.1552734 10.7844653,15.9923519 10.6340739,15.6665039 C10.4836825,15.3406559 10.3762617,14.8447299 10.3118083,14.1787109 Z M11.5041911,21.2470703 C11.0673399,21.2470703 10.6859961,21.1056329 10.3601481,20.8227539 C10.0343001,20.5398749 9.87137857,20.1442083 9.87137857,19.6357422 C9.87137857,19.1917296 10.0271387,18.8139664 10.3386637,18.5024414 C10.6501887,18.1909164 11.0315326,18.0351562 11.4827067,18.0351562 C11.9338808,18.0351562 12.3188054,18.1909164 12.6374919,18.5024414 C12.9561783,18.8139664 13.1155192,19.1917296 13.1155192,19.6357422 C13.1155192,20.1370468 12.954388,20.530923 12.6321208,20.8173828 C12.3098535,21.1038426 11.9338807,21.2470703 11.5041911,21.2470703 Z" id="!" fill="#FFFFFF" fill-rule="nonzero"></path>
                </g>
            </g>
        </g>
    </g>
</svg>