<?xml version="1.0" encoding="UTF-8"?>
<svg width="60px" height="60px" viewBox="0 0 60 60" version="1.1" xmlns="http://www.w3.org/2000/svg" xmlns:xlink="http://www.w3.org/1999/xlink">
    <!-- Generator: Sketch 53.2 (72643) - https://sketchapp.com -->
    <title>reboot orange</title>
    <desc>Created with Sketch.</desc>
    <g id="Dashboard-Launch-Version-v2" stroke="none" stroke-width="1" fill="none" fill-rule="evenodd">
        <g id="Dashboard-w/-Navbar" transform="translate(-30.000000, -508.000000)">
            <g id="shutdown-hover" transform="translate(30.000000, 428.000000)">
                <g id="reboot-orange" transform="translate(0.000000, 80.000000)">
                    <circle id="Oval-Copy-5" fill="#FA6400" cx="30" cy="30" r="30"></circle>
                    <path d="M31.6380142,14.0079486 C22.6092003,13.7591079 15.2123134,21.0288095 15.2123134,30.0048468 L12.037151,30.0048468 C11.2389258,30.0048468 10.8486823,30.9646607 11.4163091,31.515665 L16.3653054,36.4747034 C16.7200721,36.8301901 17.2699606,36.8301901 17.6247273,36.4747034 L22.5737236,31.515665 C23.123612,30.9646607 22.7333686,30.0048468 21.9351434,30.0048468 L18.759981,30.0048468 C18.759981,23.0728576 24.4007724,17.4739432 31.3542008,17.5628148 C37.9528624,17.6516865 43.5049621,23.2150522 43.5936538,29.8271035 C43.6823455,36.7768671 38.0947691,42.4468788 31.1768174,42.4468788 C28.9595252,42.4468788 26.8841396,41.8425515 25.0748292,40.8294146 C24.383034,40.4383793 23.5315938,40.580574 22.9817053,41.1493526 C22.1657418,41.9669718 22.3253868,43.371144 23.3364721,43.9399226 C25.6601943,45.2374488 28.320945,46.0017451 31.1768174,46.0017451 C40.1346779,46.0017451 47.3896581,38.5898489 47.1413213,29.5427142 C46.910723,21.2065528 39.9572946,14.2390149 31.6380142,14.0079486 Z" id="Path" fill="#FFFFFF" fill-rule="nonzero"></path>
                </g>
            </g>
        </g>
    </g>
</svg>