<?xml version="1.0" encoding="UTF-8"?>
<svg width="60px" height="60px" viewBox="0 0 60 60" version="1.1" xmlns="http://www.w3.org/2000/svg" xmlns:xlink="http://www.w3.org/1999/xlink">
    <!-- Generator: Sketch 53.2 (72643) - https://sketchapp.com -->
    <title>shutdown red</title>
    <desc>Created with Sketch.</desc>
    <g id="Dashboard-Launch-Version-v2" stroke="none" stroke-width="1" fill="none" fill-rule="evenodd">
        <g id="Dashboard-w/-Navbar" transform="translate(-30.000000, -428.000000)">
            <g id="shutdown-hover" transform="translate(30.000000, 428.000000)">
                <g id="shutdown-red">
                    <circle id="Oval-Copy-6" fill="#E02020" cx="30" cy="30" r="30"></circle>
                    <path d="M30,12 C28.9,12 28,12.9 28,14 L28,30 C28,31.1 28.9,32 30,32 C31.1,32 32,31.1 32,30 L32,14 C32,12.9 31.1,12 30,12 Z M40.2815405,17.590436 C39.5016962,18.3740561 39.5216922,19.5997184 40.2615445,20.3833385 C42.5210935,22.7944774 43.9208142,26.0093292 44.0007982,29.565759 C44.1807623,37.2613105 37.8420274,43.8919424 30.183556,43.9723137 C22.3651165,44.0928706 16.0063856,37.7636311 16.0063856,29.9274298 C16.0063856,26.2303502 17.4261022,22.8748487 19.7456393,20.3632457 C20.4854916,19.5796255 20.4854916,18.3539633 19.7256433,17.590436 C18.9258029,16.786723 17.6260623,16.8068159 16.866214,17.6306216 C13.9667927,20.7249165 12.1471559,24.8439454 12.0071838,29.4050164 C11.7272397,39.2103144 19.6656552,47.6894861 29.4237076,47.9908785 C39.6216722,48.3123636 48,40.0943987 48,29.907337 C48,25.1453378 46.1603672,20.8454734 43.1609658,17.6306216 C42.4011175,16.8068159 41.0813809,16.786723 40.2815405,17.590436 L40.2815405,17.590436 Z" id="power-icon-copy" fill="#FFFFFF" fill-rule="nonzero"></path>
                </g>
            </g>
        </g>
    </g>
</svg>